<?xml version="1.0" encoding="UTF-8" standalone="no"?>
<svg
   width="1000000"
   height="1000000"
   viewBox="0 0 1000000 1000000"
   version="1.1"
   xml:space="preserve"
   style="clip-rule:evenodd;fill-rule:evenodd;stroke-linejoin:round;stroke-miterlimit:2"
   id="svg12"
   sodipodi:docname="streamerbot-logo-transparent.svg"
   inkscape:export-filename="streamerbot-logo-transparent.ico"
   inkscape:export-xdpi="6.1440001"
   inkscape:export-ydpi="6.1440001"
   xmlns:inkscape="http://www.inkscape.org/namespaces/inkscape"
   xmlns:sodipodi="http://sodipodi.sourceforge.net/DTD/sodipodi-0.dtd"
   xmlns="http://www.w3.org/2000/svg"
   xmlns:svg="http://www.w3.org/2000/svg"
   xmlns:serif="http://www.serif.com/"><defs
   id="defs12" /><sodipodi:namedview
   id="namedview12"
   pagecolor="#505050"
   bordercolor="#ffffff"
   borderopacity="1"
   inkscape:showpageshadow="0"
   inkscape:pageopacity="0"
   inkscape:pagecheckerboard="1"
   inkscape:deskcolor="#505050" />&#10;    <g
   id="Logo---Transparent"
   serif:id="Logo - Transparent"
   transform="matrix(3.50877,0,0,3.50877,-67.4403,-114.035)">&#10;        <g
   transform="matrix(0.251419,0,0,0.251419,36.011,47.3455)"
   id="g6">&#10;            <g
   transform="matrix(0.49435,0.49435,-0.556777,0.556777,565.973,-204.145)"
   id="g1">&#10;                <path
   d="M 865,312.5 C 865,277.453 832.954,249 793.481,249 H 218.519 C 179.046,249 147,277.453 147,312.5 V 376 h 718 z"
   style="fill:#a257ed"
   id="path1" />&#10;            </g>&#10;            <g
   transform="matrix(0.493218,-0.493218,0.556777,0.556777,-65.8496,295.732)"
   id="g2">&#10;                <path
   d="M 865,312.5 C 865,277.453 832.88,249 793.317,249 H 218.683 C 179.12,249 147,277.453 147,312.5 c 0,35.047 32.12,63.5 71.683,63.5 H 793.317 C 832.88,376 865,347.547 865,312.5 Z"
   style="fill:#a257ed"
   id="path2" />&#10;            </g>&#10;            <g
   transform="matrix(-0.493552,-0.493552,0.556777,-0.556777,433.915,927.768)"
   id="g3">&#10;                <path
   d="M 865,312.5 C 865,277.453 832.902,249 793.366,249 H 218.634 C 179.098,249 147,277.453 147,312.5 c 0,35.047 32.098,63.5 71.634,63.5 H 793.366 C 832.902,376 865,347.547 865,312.5 Z"
   style="fill:#a257ed"
   id="path3" />&#10;            </g>&#10;            <g
   transform="matrix(-0.160668,0.160668,-0.556777,-0.556777,777.716,716.137)"
   id="g4">&#10;                <path
   d="M 865,312.5 C 865,277.453 766.398,249 644.948,249 H 147 v 127 h 718 z"
   style="fill:#a257ed"
   id="path4" />&#10;            </g>&#10;            <g
   transform="matrix(-0.171921,0.171921,-0.556777,-0.556777,1018.86,475.471)"
   id="g5">&#10;                <path
   d="M 865,249 H 352.649 C 239.148,249 147,277.453 147,312.5 V 376 h 718 z"
   style="fill:#a257ed"
   id="path5" />&#10;            </g>&#10;        </g>&#10;        <g
   transform="matrix(0.251419,0,0,0.251419,36.011,49.2905)"
   id="g12">&#10;            <g
   transform="matrix(0.493552,0.493552,-0.556777,0.556777,566.085,79.9677)"
   id="g7">&#10;                <path
   d="M 865,312.5 C 865,277.453 832.902,249 793.366,249 H 218.634 C 179.098,249 147,277.453 147,312.5 V 376 h 718 z"
   style="fill:#00dbff"
   id="path6" />&#10;            </g>&#10;            <g
   transform="matrix(0.160809,-0.160809,0.556777,0.556777,222.263,291.619)"
   id="g8">&#10;                <path
   d="M 865,312.5 C 865,277.453 766.484,249 645.141,249 H 147 v 127 h 718 z"
   style="fill:#00dbff"
   id="path7" />&#10;            </g>&#10;            <g
   transform="matrix(0.171873,-0.171873,0.556777,0.556777,-18.2731,532.704)"
   id="g9">&#10;                <path
   d="M 865,249 H 352.707 C 239.174,249 147,277.453 147,312.5 v 44.45 c 0,10.514 27.652,19.05 61.712,19.05 H 865 Z"
   style="fill:#00dbff"
   id="path8" />&#10;            </g>&#10;            <g
   transform="matrix(-0.492819,-0.492819,0.556777,-0.556777,433.096,1211.19)"
   id="g10">&#10;                <path
   d="M 865,312.5 C 865,277.453 832.854,249 793.259,249 H 218.741 C 179.146,249 147,277.453 147,312.5 V 376 h 718 z"
   style="fill:#00dbff"
   id="path9" />&#10;            </g>&#10;            <g
   transform="matrix(-0.494044,0.494044,-0.556777,-0.556777,1065.38,711.289)"
   id="g11">&#10;                <path
   d="M 865,312.5 C 865,277.453 832.934,249 793.437,249 H 218.563 C 179.066,249 147,277.453 147,312.5 V 376 h 718 z"
   style="fill:#00dbff"
   id="path10" />&#10;            </g>&#10;        </g>&#10;    </g>&#10;</svg>
